<svg xmlns="http://www.w3.org/2000/svg" viewBox="0 0 957.79 365.94"><defs><style>.cls-1,.cls-2{fill:#fff;}.cls-2{stroke:#fff;stroke-linecap:round;stroke-linejoin:round;}</style></defs><title>Fichier 5</title><g id="Calque_2" data-name="Calque 2"><g id="Calque_1-2" data-name="Calque 1"><path class="cls-1" d="M84.4,227.64a46.24,46.24,0,0,0,27.26-8.32q11.86-8.31,11.86-25.1T110.74,168.5Q98,159.56,74.39,152.94T40.2,141.39A90.62,90.62,0,0,1,20,128.45Q.93,112.45.92,78.86q0-27.42,19.56-47.13T73.93,12a130.94,130.94,0,0,1,34,4.78q17.7,4.77,22,4.77t7.7-6.16h3.39l2.16,62.23h-4.93q-14.79-26.8-31-43T72.24,18.48q-18.94,0-29.42,8.78T32.34,50.67q0,14.64,12.48,22.49T75.47,85.94q18.16,4.94,23.87,6.78t14.17,5.08a72.82,72.82,0,0,1,13.86,6.78,97.53,97.53,0,0,1,11.4,8.93,42.43,42.43,0,0,1,9.4,11.86q8.31,14.79,8.31,35.12,0,33.27-20.79,53.44T81,234.11q-17.55,0-40.2-4.62t-25.1-4.62q-4.32,0-8.32,9.24H3.08L0,160.8H5.24a169.19,169.19,0,0,0,34.65,46.82Q61,227.65,84.4,227.64Z"/><path class="cls-1" d="M246.12,158.64h8.93V134.92q0-29.26-3.23-39.27t-12.48-10a17.9,17.9,0,0,0-10,2.93,9.12,9.12,0,0,0-4.47,8,30.92,30.92,0,0,0,1.85,10.32h7.7a43.6,43.6,0,0,1,2.47,15.56q0,9.08-7.7,15.7t-19.41,6.63q-26.49,0-26.49-25.57,0-37.89,64.38-37.89,36.66,0,50.67,12.48t14,45.74v62.53q0,16,8.93,16,10.47,0,12.32-31.73l4.62.31q-1.23,27.11-10.16,37.27t-29.27,10.17q-37,0-42.51-22.8-4,11.72-12,17.25t-23.41,5.55q-45.59,0-45.59-37.27,0-21.87,17.4-30T246.12,158.64Zm-10.63,58.53a6.39,6.39,0,0,0,6.47,4.62q4.77,0,8.93-7.86t4.16-21.71V163.57H252.9q-19.11,0-19.1,28v4.93Q233.8,212.55,235.49,217.17Z"/><path class="cls-1" d="M415.54,0V107.81q11.7-26.49,40-26.49,57.6,0,57.61,76.7,0,39.14-15.87,57.61t-47.59,18.48q-16,0-24.49-4.93t-11.55-16.33L411.53,231H341.3v-5.55h16.94V5.54H341.3V0Zm35.11,105.5q-3.07-10.92-12-10.93t-16,11.09q-7.08,11.09-7.08,30.49v57.3q0,13.25,5.39,22.48t15.4,9.25q10,0,13.71-13.56t3.69-47.44v-16Q453.73,116.45,450.65,105.5Z"/><path class="cls-1" d="M521.19,84.4h75.47V225.48h17.25V231H522.43v-5.55h16.94V90H521.19Zm46.52-21.25q-16.34,0-23.26-8.32t-6.93-20.64q0-12.31,7.55-20.33t22.95-8q15.39,0,23.41,7.24t8,20.64q0,13.4-7.7,21.41T567.71,63.15Z"/><path class="cls-1" d="M620.69,84.4h74.23v28.34Q699.86,98.58,710,90t30.8-8.63q47.74,0,47.75,51.44v92.72h17.25V231H718.64v-5.55h12.63V125.37q0-18.48-2.46-23.87c-1.65-3.59-4.62-5.39-8.94-5.39q-9.86,0-17.4,12.94t-7.55,31.42v85h13.25V231H620.69v-5.55h16.94V90H620.69Z"/><path class="cls-1" d="M831.23,213.62q-19.87-20.48-19.87-57t22.33-55.91Q856,81.32,890.53,81.32q69.91,0,67.15,70.23H870.81v12q0,30.19,7.7,45.59t26.8,15.4q35.73,0,46.82-38.2l5.55.93q-5.86,22.17-21.1,34.5t-45.75,12.32Q851.1,234.11,831.23,213.62Zm39.89-68.23h31.73V130.3q0-24.95-2.93-34t-11.7-9.09q-8.79,0-12.94,9.71t-4.16,33.42Z"/><path class="cls-2" d="M333.12,302.84q4.51-3.12,12.19-3.12t12,3.21a10.26,10.26,0,0,1,4.51,8.13H355q-.79-5.81-9.82-5.81c-2.92,0-5.16.66-6.74,2a5.55,5.55,0,0,0-2.37,4.24,4.91,4.91,0,0,0,1.79,3.84,15.39,15.39,0,0,0,5.71,2.72l8.58,2.86a22.12,22.12,0,0,1,8.34,4.33,9.27,9.27,0,0,1,2.91,7.23q0,4.6-4.74,8.31t-13.21,3.7q-8.49,0-13.22-3.79a12.77,12.77,0,0,1-5-9.78H334a7.14,7.14,0,0,0,3.26,6,15.89,15.89,0,0,0,15.4,0q3-2,3-4.69a5,5,0,0,0-1.79-4.15,16.38,16.38,0,0,0-5.8-2.5l-8.31-2.77q-11.16-3.3-11.16-11.6A9.76,9.76,0,0,1,333.12,302.84Z"/><path class="cls-2" d="M413.44,300.79l10.35,34,10.18-32h5.9L450,335.17l10.44-34.38h7l-13.93,42.68h-6.88l-9.82-29.91-9.64,29.91h-6.79l-14.19-42.68Z"/><path class="cls-2" d="M540.41,315.79q0-5.81-2.42-8.3c-1.6-1.67-3.94-2.5-7-2.5a13.43,13.43,0,0,0-7.42,1.83,6.38,6.38,0,0,0-2.81,5.76H513q0-9.82,10.54-12.15a32.42,32.42,0,0,1,7-.71q7.95,0,12.42,4T547.37,316v27.5H541.3l-.72-7.14q-3.93,8.12-14.19,8.12-6.89,0-11-3.84a12.46,12.46,0,0,1-4.15-9.55,10.28,10.28,0,0,1,4.6-8.93,19.55,19.55,0,0,1,11.47-3.21,37.39,37.39,0,0,1,13.13,2.32Zm0,9.91a41.66,41.66,0,0,0-11.08-1.78,15.33,15.33,0,0,0-7.68,1.69,5.74,5.74,0,0,0-2.94,5.36q0,8,9.11,8a12.12,12.12,0,0,0,8.88-3.71A13,13,0,0,0,540.41,325.7Z"/><path class="cls-2" d="M591.12,355.88a14.82,14.82,0,0,0,9.2,3.4c2.38,0,4.43-1.2,6.16-3.58a25.9,25.9,0,0,0,3.39-7.85l1.25-4.38-17.5-42.68h7.86l12.95,34,10.09-34h7.14l-16,51.16a25,25,0,0,1-5.41,10,11.24,11.24,0,0,1-8.48,3.49,21.76,21.76,0,0,1-10.67-3.13Z"/></g></g></svg>